<svg id="Layer_1" data-name="Layer 1" xmlns="http://www.w3.org/2000/svg" viewBox="0 0 800 800"><defs><style>.cls-1{fill:none;stroke:#fff;stroke-linecap:round;stroke-linejoin:round;stroke-width:66.67px;}</style></defs><path class="cls-1" d="M466.67,200H333.33M500,566.67c-9.45-38-50.63-66.67-100-66.67s-90.55,28.63-100,66.67m100-200h.33M273.33,700H526.67c37.33,0,56,0,70.26-7.27a66.64,66.64,0,0,0,29.14-29.13c7.26-14.26,7.26-32.93,7.26-70.27V206.67c0-37.34,0-56-7.26-70.27a66.64,66.64,0,0,0-29.14-29.13C582.67,100,564,100,526.67,100H273.33c-37.33,0-56,0-70.26,7.27a66.64,66.64,0,0,0-29.14,29.13c-7.26,14.26-7.26,32.93-7.26,70.27V593.33c0,37.34,0,56,7.26,70.27a66.64,66.64,0,0,0,29.14,29.13C217.33,700,236,700,273.33,700Zm160-333.33A33.33,33.33,0,1,1,400,333.33,33.33,33.33,0,0,1,433.33,366.67Z"/></svg>