<svg id="Layer_1" data-name="Layer 1" xmlns="http://www.w3.org/2000/svg" viewBox="0 0 800 800"><defs><style>.cls-1{fill:none;stroke:#fff;stroke-linecap:round;stroke-linejoin:round;stroke-width:66.67px;}</style></defs><path class="cls-1" d="M133.33,600,300,400M666.67,600,500,400M100,266.67,340.83,427.22c21.39,14.26,32.08,21.39,43.63,24.15a66.63,66.63,0,0,0,31.08,0c11.55-2.76,22.24-9.89,43.63-24.15L700,266.67M206.67,633.33H593.33c37.34,0,56,0,70.27-7.26a66.64,66.64,0,0,0,29.13-29.14C700,582.67,700,564,700,526.67V273.33c0-37.33,0-56-7.27-70.26a66.64,66.64,0,0,0-29.13-29.14c-14.26-7.26-32.93-7.26-70.27-7.26H206.67c-37.34,0-56,0-70.27,7.26a66.64,66.64,0,0,0-29.13,29.14C100,217.33,100,236,100,273.33V526.67c0,37.33,0,56,7.27,70.26a66.64,66.64,0,0,0,29.13,29.14C150.66,633.33,169.33,633.33,206.67,633.33Z"/></svg>