<svg id="Layer_1" data-name="Layer 1" xmlns="http://www.w3.org/2000/svg" viewBox="0 0 800 800"><defs><style>.cls-1{fill:none;stroke:#fff;stroke-linecap:round;stroke-linejoin:round;stroke-width:66.67px;}</style></defs><path class="cls-1" d="M516.67,283.33H517M350,250h.33M250,383.33h.33M400,700c-165.69,0-300-134.31-300-300S234.31,100,400,100,700,234.31,700,400A100,100,0,0,1,600,500H580c-12.39,0-18.58,0-23.76.82a66.67,66.67,0,0,0-55.42,55.42C500,561.42,500,567.61,500,580v20A100,100,0,0,1,400,700ZM533.33,283.33a16.67,16.67,0,1,1-16.66-16.66A16.66,16.66,0,0,1,533.33,283.33ZM366.67,250A16.67,16.67,0,1,1,350,233.33,16.68,16.68,0,0,1,366.67,250Zm-100,133.33A16.67,16.67,0,1,1,250,366.67,16.67,16.67,0,0,1,266.67,383.33Z"/></svg>